<svg enable-background="new 0 0 581.7 54.1" viewBox="0 0 581.7 54.1" xmlns="http://www.w3.org/2000/svg"><path d="m504.5 32.1c0-.8.4-1.1.8-1.1 1.3-.2 2.6-.3 3.9-.4 1 .2 1.4 1.5 2.5 1.5.2-.1.7-.2.7-.4.4-1.6 1.9-2.7 3.6-2.7 2.2-.2 4.5 0 6.5-.8 1.5-.6 2.7-1.2 4.2-.4.6.1 1.1.1 1.7 0 .7 0 1.4-.1 2.1-.2.2-.7.3-1.2.5-1.7.8.1.6.8.8 1.2.1.1.3.3.3.3.2-.2.4-.4.6-.6 1.4-1.9 4.1-.8 5.6-2.7 2.5 1.8 5.4-.5 8 .9l.4-1.5c1-.5 1.4.1 2 .6 2.3-1 4.5-2.3 7.2-.6 3.1-2.7 7.6-.2 10.7-2.9l1.5.9c2.9-1.7 5.7-3.7 9.2-3.5 1.1 1 2.6 1 3.9 1.6l.4 4.6c-.3 3.7-3.8 4.2-6.2 5.2-3 1.3-6.2 2-9.2 3.5-1.3.7-3.4 1.3-4.5-.3-1.3 0-1.4 1.2-2.6 1.2-4.3-.1-8.6 1.5-12.9.5-1.8 1.3-4 .9-6 1.2-.8.2-1.7-.1-2.1-.8l-.8 1.5c-.8.4-1 .7-1.2.6-3.7-.5-7.4.2-10.7 1.8-1.1.5-2.6.3-3.9.4-1.1.1-1.9 2.2-3.2.4-1 1.3-2.6.9-3.9 1.2-.7.1-.9-.5-1.5-.7-1 1.4-2.2 1.5-3.5.3l-.6 2c-1.6-1.2-3.7-.2-5.5-1.4l-1.3 1.9c-1.6.2-3.3.9-5.1-.5.1.9.1 1.2.1 1.5-.2.1-.5.3-.6.3-.4-.4-1-.6-1.5-.5-3.3.7-6.8.1-10.1 1.7-2 1-4.3.9-6.2-.2-4.4 2.9-11.4 3.2-14.6 2.3l-.1 1.3c-.2.1-.4.4-.6.4-4.1.4-8.2.8-12.3 1.1-3.3.2-6.2 2-9.6 1.9-1-.2-1.9-.4-2.9-.7-.5.3-1.1 1-1.7 1-3 .1-6 1.3-9 .2-1.5 1.7-3.6.5-5.4.9-2.3.5-4.7 1.4-7.1.1-.8-.4-2 .1-3 .2-2.2 0-4.4-.5-6.3-1.5-2-1-4.1-1.7-5.8-3.2-.7-.6-1.4 0-2.3-.1-.9-1.2-1.8-2.2-3.7-2.3-1 .1-1.8.1-2.7.2-.4-.2-.7-.5-1-.8-1.6-.1-3.1.9-4.5-.5-.8-2.6 1.1-4.7.8-7 .9-1 2.4-1.3 3.6-.5 1.4.3-.6 3.2 2.2 2.8.3-.1.7-.3 1-.5 1.4-.7 1.8-2.5 3.7-2.2 1.6 0 3.2-.1 4.9-.3 1.6.6 2.2 2.5 4.2 2.3 1.6-.1 2.3 1.6 3.6 2.2 2.8-.3 5.5.7 8.4.3 2.6-.3 5.3 0 7.8.8 1.3.2 2.7-.1 3.7-.8 1.6-1.1 3.6-1.7 5.5-1.7 3.4 0 6.8-1.4 10.2-.2 1.2.5 2.6 0 3.1-1.2 0-.1 0-.1.1-.2l1.8 1c1.9-1.2 3.9-1.9 6.1-.8.1-.4.1-.8.2-1.2.2-.1.5-.4.7-.4 1.6.2 3.4-1.1 5 .3.7.3 1.5.2 2.1-.2 2-1.6 4.4-1 6.6-1.4 1.2-.2 2.5-.1 3.5-1.2.6-.6 1.8 0 2.6.5l1.5-1.8c2.3.3 4.7-1.2 7.1.2.1-.1.3-.5.5-.5 4.4-1 8.9-1 13.6-1.6 1.6-.4 2.9 1 4.4-.1z" fill="#cdbd9a"/><path d="m371 36.9c-.8.5-1.9.3-2.5-.5-.7-1-1.8-.8-2.7-.6-1-1.6-4.1-3.8-7-5 .2-1.3-1.5-2.3-.6-3.8l-1.1-.9c-.8.6-2 1.5-2.7.8s-2.7.2-2.4-2c.3-.7.5-1.3.6-2-.4.9-.2 1.2-.5 1.6-.2.2-.4.2-.6.2-1.6 0-2.8-1.3-4.2-1.3-2.3 0-4.7.4-7 .6-2.6.2-5.2.6-7.9.7-1.6.1-3.3.7-5-.3-1.1-.4-2.4-.3-3.4.3-1.8 1.1-4 1.3-5.9.5-1.5-.6-2.5 1.1-3.9 1.3-1.2 0-1.6-1.2-2.7-1.7l-1.3 2.1c-1.4-.3-2.5-.9-3.8-.7-1.8.3-3.6.8-5.4-.3-.8-.2-1.7-.1-2.5.4-2.2 1.4-4.6 1-7 1-.2 0-.5-.4-.7-.5-.8 1.4-2.2 1.1-3.5 1.1-3 .1-5.9 1.1-9.1.3-.2.3-.7.9-1.2 1.4-.1.1-.2.2-.4.2-4 .5-8 .5-11.8 1.9-1.4.5-3.4 1.2-4.8-.5-1 1.2-3.6.6-2.6 3.6-1.4-1.5-2.4-1.6-3.5-.8-1.7 1.2-3.9 1.3-5.4 2.7-1.1 1-2.2-.8-3.3.1s-2.8.6-4.2.7c-1.2.1-2.5.7-3.8-.2s-2.5 0-4 0c-1.6-1.8.7-2.5.9-3.8.2-1.7-1.6-3.3 0-5.3 3.6-1.2 6.1.5 8.3 3.9-.6-1.5-1.2-2.6-.7-4.2 1.9.1 2.2-1.6 3.3-2.4 2.3 1.6 4.1.5 5.9-1.4 1.9-.1 3.8-.6 5.5-1.6 2.1-1 4.3-1.7 6.6-2.1 1.4-.3 2.9-.4 4.3-.4.8.8-.4.9-.3 1.4.8.6 1.6.3 2.4 0 0-.4.1-.8.1-1.2.2-.1.5-.4.7-.4 2.6.2 4.8-3 7.6-.7 3.3-2 7-1.2 10.4-1.9.6 1.1 2.1.4 2.8 1.7.5-.8.9-1.6 1.1-2 4-.7 7.4 0 11.2.8l.9-1.9c1.3-.2 2.5-.2 3.8 0 2.3.7 4.9.4 7-.8.7-.4 1.7-.6 2-.4 1.8 1.5 3.7 0 5.6.5l.6 1.3c.7.4 1.4.1 2.1 0l.4-1.6 2.1-.2c.5 1.1.3 2.7 1.8 3.2 1.3-1.4 2.8-2.7 4.3-3.8 1.3-1.1 3-1.4 4.6-1 2.9.7 6 .4 8.6-.9.2.1 0 .8.3 1.2.7.5 1.4 0 2.2.1l.4-1.6c1.8 0 2.6 1.8 4.3 2.2l.2 2.7c.9 1 1.9 0 2.7.7.1.6.3 1.3.4 2 .8.5.7-.6 1.2-.7s1.2-.1 1.9-.2c2.8 3.3 6.8 4.8 10.6 6.5 1.3.5 2.5 1.2 3.5 2.3 1.1 1.4 3.4 1.3 4.1 3.5-.6.9-1.4.8-2.5.5-.9-.4-1.8-.7-2.7-.9-1.5-.4-2.2.6-3.5 1-.6.1-.7-.3-.9-.5-.2.3-.1.5.5.8 1.2 1.8 1.9 3.2 1.2 5.2z" fill="#d9cba6"/><path d="m55.9 35.8c-.5.7-4.9 2.4-5.7 2.5-1.3.1-2.6 0-3.4 1.2-2.1-1-4.5-.9-6.5.2-1.9 1-4 2-6.4 1.8-2-.2-4 .4-5.6 1.6-1.6 1.1-3.6.5-5 2-.9.6-2 .5-2.8-.2-.6-.6-1.4 0-2.3-.1-.6-.3-.8-.7-.5-1.4.1-.3.2-.6.1-1 .1-.5.5-.9 1-1s1-.2 1.5-.2c.3 0 .6.1 1 .1.4.1.9.1 1.4.1.6-.1 1.1-.5 1.4-1.1.2-.4.3-.5.5-.9.6-.9 1.4-1.6 2.3-2.2.5-.4 1.1-.3.7-.9-.6 0-1.1.3-1.5.7-.3.2-.5.5-.9.6-.7.3-1.5.2-2.1-.1-.5-.4-.8-1-.5-1.7-.2-1.1.2-2.3 1.2-2.9 1.2-.6 2 1.1 3.1.5 1.3-.1 1.3-1.9 2.7-2 1.2.2.8 2.3 2.4 2.3.5-.3.2-.8.2-1.4.2-.4.4-.7.7-1 2.3-.4 4.5-.6 6.7-.8.8-.6 1-1.8 1.5-1.9 1.8-.2 1.2 1.1 1.9 1.5 1.5.4 1.7-1.2 2.6-1.8l1 .7c.7-.4-.1-1.5.3-1.6 1.3-.6 1.7.3 2.2.5 1 .2 1.2-.8 1.8-1s1 .3 1.3.3c2.4-.9 5-1 7.5-.3 1.2.4 2-1.6 3.5-1.2 1.2-2 2.7-.6 4.2-.3.8-.8.5-2.2 1.7-2.8s2.2.1 3.1.5c.2-.1.5-.3.8-.4 2.9-1.2 5.9-2.2 8.9-3.1 2.4-.5 4.8-1.3 7-2.4 1-.5 2.1-.4 2.9-1.6.6-.9 1.7-1.2 2.6-.6.1.1.2.1.3.2 2.5 0 3.1-4.4 6.3-2 .8-1.2 2.7-1 2.9-2.7 3.1-.4 4.2-.2 8.5 1.7.8-1.2.5-2.1-.6-2.9.2-1.1 1.1-1.5 4.7-1.9l1.3 1.6 3.1-.3c.6-.3.3-.9.5-1.6 1.3-.3 2.8-.4 3.3-2.1 3.8-.9 7.8-.1 11.3-2.3l2.2 1.7c1.3.2 1.4-1.3 2.5-1.1.7.2 1.4.1 2-.4.1-.4.1-.8.2-1.2.2-.1.5-.4.7-.4 1.2.1 2.5-.8 3.8.2.7.5 1.5.2 2.3-.3 2.6-1.3 5.5-1.4 8.2-.4.6-.2.8-1.3 1.7-1s.4 1.3 1.2 1.6c.5-.5.9-1.2 1.9-1 .8.4.8 1 .3 1.9-.5.5-1.3.8-2 .5-.2-.1-.2 0-.2 0 .6-.1-.3.8.2.6.1.5.1 1.1-.1 1.6-.7.9-1.6 1.1-2.4 2-.2.6-.3.9-.5 1.5-.1.3-.4.6-.6.9-.8.6-1.6.6-2.3 1.4 0 1.1-.9 1.4-1.2 1.1-1-.9-2.1-.5-3.2-.8l-.4-1.2c-.2-.4-.4-.3-.6 0-1.3 1.1-2.7 2.1-4.5 1.9-2.7-.3-4.8 1.6-7.4 1.6-2.4 0-4.5 1.2-6.7 2.1-2.2 1-4.8 1-7-.1l-.9 1c-.5-.5-1-1.1-2-.6-.1.4-.2 1-.4 1.7-3.5-.3-6.3 2.4-9.8 2.4-.2 0-.4-.4-.7-.6l-1.6 1.8c-2.3.5-4.6 1.3-6.8 2.2-1.7.6-3.1 1.8-5.1 1.6-1.7-.1-2.6 1.5-3.8 2.1-.6.2-.8-.2-1.2-.5-2 1.3-4.3.7-6.4 1.3-1.3 1.7-3.7 1.7-5.4 3.2-1.1-1-2.5-.9-4-.6-.5.3-.2 1-.4 1.5-3.3 1.5-6.9 2-10.3 2.9-.3.1-.7-.3-1.2-.6-1.8 1.9-4.7 2.4-7.1 1.2-.3-.2-.5-.4-.7-.7z" fill="#dfd2b3"/><path d="m161.5 2.6c1.1-.2 1-.9.9-1.8 2.8-.9 5.6 1 8.3-.2.5.9 1 1.6 1.4 2.3l-.7.8c1 .7 2.1 0 3.2.2 1.8 1.6 4.2 2.5 5.6 4.7.7 1 1.7.8 2.8.7 1.5 1.9 3.8 2.7 6 3.7 1.1 1.2 1.3 2.8 3.2 4.3.5.4 1.7-1.3 3.1-.5.3.2.5.6.6 1-.2.7-.5 1.3-.9 1.9 1.9.9 3.6-2 5.6 0 .2.5.4.8.9.9.4-.1.8-.3 1.2-.5.9-.3 1.1.4 1.8.6 1.8-.6 2.4.6 3.3 1.9-.1.8-.5 1.1-.7 1.5.5.2.6-.2.9-.7 0-.4.1-.7.3-1 .2-.2.6-.3.8-.3 1.2.7 2.4.7 3.6 1.3 1.1.8.9 1.8 1 2.9.1.7.7 1.2 1.4 1.2 1.7 0 3.3-.7 3.8 1.7-.5 1.6.5 2.7.3 4.3-3.6.7-6.9-.2-10.1-1.2-1-.3-.9-.9-.5-1.9.4-.6.9-.8.5-1.4-.6.3-1.2.4-1.8.5-1.5-.7-2.5-1.4-4.2-1.3-.7 0-1.3.3-1.9.7-1.3.2-2.5.8-3.3-.4-.3.3-.6.6-.8.9-.5-.2-.5-.7-.5-1.3-1.9-.2-3.4-1.8-5.6-1.7-.9 0-1.8-.8-1.8-2.2-2.4-.9-4.7-1.6-7-2.2-.3-.1-.8 0-.8-.1-.2-2.7-3.3-.5-3.9-2.4-.2-.5-.4-1-.6-1.5l-2 .2c-.6-1-1.2-2.1-1.8-3.2-2.4-.7-4.7-1.4-5.8-4.1l-2.5.2c-1-.2-.4-2.3-2.3-1.6-.3-.1-.6-.2-.9-.1-.3.2-.6.3-.9.3-1.2.4-2.5.3-3.6-.3-.2-.6-.4-1.1-.4-1.8.7-1.3 2.3-.7 3.1-2.1.1-.6.1-1.2 0-1.8.5-.7 1.1-.7 1.7-1.1z" fill="#cdbd9a"/><path d="m210.4 29.5c-1.1.3-1.1 1.3-1.8 1.6 2.8 1.6 5.7.9 8.4.7.7.3.6.8.6 1.2.6.6 1.2.5 1.7-.4 3.2-2 5.3 2.3 8.3 1.4-2.6.7-3.5-1.5-5-2.7s-3.5-.1-4.6-2c.3-.4.7-.7 1.2-.9l-2-.8c-.3.6-1 .9-1.7.8-.7-.8-1.7-1.4-2.7-1.4-.8-1.3.7-2.1.3-3.4.7-.3 1.4-.4 2.2-.4l2.8 2.4 2.7-.2c.5.4 1 .8 1.4 1.3.2.3 0 .9.6 1.2 1.6-.1 3.3-.4 5-.4 1.2 0 2.4-.6 3.7.4 1.1.5 2.3.2 3.1-.6.9-.9 2.1-.5 3.2-.5.2.5.3.9.5 1.3 1 .5 2 0 3.2 0 .7 2 2.1 3.7 1.4 6l-1.2.1c-.6-.6.2-.7.3-1.5 0-.5-.7 0-1.3-.1l-1.9-3.3c-1.6.4-3.2.1-4.6-.7-.4 1.1-.4 2.4 0 3.5l1.6.4c.4 1.9.1 3.3-2 3.4-1 .1-1.2.6-1 1.7.1.7-.4 1.3-1 1.4-.3 0-.6 0-.8-.2-1.4-1-2.8-.6-4.1-.4-3.4.4-6.6-.7-9.9-.8-.7 0-1-.6-1.5-.8-1.9-.9-3.7-2.1-5.2-3.6-2.9-.7-6.6.4-8-4 .6-.7 1.7-.9 2.5-.5.7.4 1.4.6 2.1.8 1.8 0 .9-1.4 1.9-1.8 1-0 1.8.4 1.6 1.8z" fill="#e8dbb2"/><path d="m19.7 41.8c-.5.2-1.1.3-1.7.3l-3.3.3c-.4 2.1-2.1 3.3-3.4 5.1l-3.5-2.7c-2.9.2-5.6-.2-7.7-2.4-.4-1.7.8-3.2.7-4.8 1-.5 1.5 0 2 .5.9-.7 0-1.6.4-2.4s1.3-.2 2-.5c1 .5.3 1.6.9 2.3 1.3.2 2.7.2 3.7 1 .9-1.3-1.3-1.3-.2-2.7 1.4-1.2 3.2 1.2 4.9.3 1.5-1 3.3-1.4 5.1-1.2 1.2 1.2-1.2 2-.1 3.2 1 .5 1.9 0 3.4.1 1 .6 1.1 1.4 1.8 2.1.2.5.3 1.1.3 1.6-.8.5-.9-.4-1.4-.4-.3.4-.6.7-1 .9-.4-.2-.7-.4-1-.7-.6-.2-1.3-.3-1.9.1z" fill="#e8dbb2"/><path d="m393.4 41c-1 2.2-2.8.7-3.9 1.5-.9-.8-.4-1.6-.8-2.3l1.6-.8v-1.2c-1.1-.3-2.2-.2-3.3.2-.2.8.9.7.7 1.2.4 1.1-1.1 1.5-.5 2.6l.9.8c-.5 1-1.6.3-2.2.8-.5.3-.2.8-.2 1.4-.9.3-1.3-.7-2.3-.5-1.9.4-3.5-.5-5-1.9 1.2-1.6 2.9-2.9 4.8-3.7-1.1-.1-3.2.5-3.9-2 .3-1.8 2.1-2.2 3.4-3.6.9-.3 1.9-.7 2.3-.4 2 1.6 4.2 1.8 6.5 2.3 1.9.4 3.8 1.4 5.8.9l.1 1.6c-.4.2-.8.3-1.3.3-.9.7 0 1.6-.4 2.4-.2.5-.7.3-1.4.4-.2-.2-.5-.2-.9 0z" fill="#f8efc3"/><path d="m382.7 33.4c.3.7.4 1.4.4 2.2-.9 1.2-2.6 0-3.4 1.2l.1.9c1.7.6 3.2 1.7 5.2.6-.2 1.7-1.3 1-1.9 1.3-.7 1.9-2.5 3.1-4.5 3.1-1.2-.9-2.5-1.2-3.8-2.1-1.5 0-.9-1.6-1.9-1.8-.7-.4-1.3-.9-1.9-1.4.1-2.2-2-3.7-1.6-6 2-.1 2.3-1.7 2.7-3 1.1-.4 1.6 0 1.5 1.3.6 1 1.4.9 2.5.8s1.6 1.2 2.8.8c.9.6 1.8 1 2.8 1.3.3.2.6.5 1 .8z" fill="#cab78a"/><path d="m195.7 16.8c-.7.2-1.4.4-2.1.4-.6.4-.3 1-.5 1.5-.8.8-1.6.1-2.2.6-.5-.6-.4-1.5.2-2.1.1-.1.1-.1.2-.2-1-.5-2.2-.6-2.8-1.6.4-.5 1-1 .7-2.1.7-.2 1.4-.4 2.1-.4.7.2.6.8.8 1.4 1.2.6 3.5-.3 3.6 2.5z" fill="#f8efc3"/><path d="m200.8 21.1c-.4-.7-.1-1.4-.8-1.8-1.7-.5-1.7 1.6-2.9 1.9-1.6.6-2.8-1.6-4.6-.6 1.3-.7 2-1.8 3-2.8.4-.2.5-.3.9-.3 1.9-.5 3.4 1.2 5.1.5.4.6.8 1.2 1.3 1.7.1.3 0 .6-.4.9-.4.6-1 .7-1.6.5z" fill="#dfd2b3"/><path d="m156.9 9.3c1.3-.1 2.6-.8 3.7.1l.2 1.8c-1.4.2-2.9.9-4.4-.1-.2-.7 0-1.4.5-1.8z" fill="#dfd2b3"/><path d="m393.9 46.7c-.1-1.4.8-1.3 1.4-1.2 1 .2 2.1.6 3.1.9-.5.6-1.1 1.1-.8 2.1-1.2-.4-2.8-.4-3.7-1.8z" fill="#e8dbb2"/><path d="m504.5 31.9c.2.4.3.9.3 1.3-1.6 1.4-3-.3-4.5-.7.4-1.8 1.5-1.4 2.4-1 .6.4 1.2.5 1.8.4z" fill="#dfd2b3"/><path d="m22.6 37.6c.8-.3 1.6-.4 2.4-.5.5-.5 1.3-.5 1.7 0 .1.1.2.2.3.4-.8.4-.8.9-.8 1.5 0 .8-.7.8-1.5.8-1 0-1.4-.6-2-1.4 0-.3-.1-.5-.1-.8z" fill="#e8dbb2"/><path d="m208.6 21.8.1.9c-.1.3-.3.5-.6.4-.3-.4-.5-.8-.6-.8-1.4.2-1.6-1-2.3-1.8 1.3-1.6 2.2-1.4 3.4 1.3z" fill="#dfd2b3"/><path d="m374.7 40.5c1.5-.1 3.2-.4 3.7 1.9-1.4.1-3.2.4-3.7-1.9z" fill="#f8efc3"/><path d="m156.8 9.1c.2.6.6 1.2-.3 1.8l-1.8.2c-.2-.5-.4-1.1-.4-1.7z" fill="#cdbd9a"/><path d="m213.1 23.1c-1.3.7-2.9.3-3.6-1 1.3-.7 2.9-.2 3.6 1z" fill="#dfd2b3"/><path d="m381.9 32.3c-.5.2-1.1.3-1.6.4-1 .1-1.1-.5-1.1-1.4 1.2-.7 1.9.2 2.7 1z" fill="#d9cba6"/><path d="m370.9 37.3c.9-.3 2-.6 1.9 1.2-.9.3-2 .6-1.9-1.2z" fill="#d9cba6"/><path d="m17.6 43.1c.3.5.4 1 .4 1.5-.4.2-.9.4-1.4.3-.7-.9-.9-1.7 1-1.8z" fill="#e8dbb2"/><path d="m201.5 28.8c-.2-.6-.6-1.3.3-1.8.6.3.7.7.5 1.5-.2.3-.6.3-.8.3z" fill="#e8dbb2"/><path d="m22.2 35.6c.2.5.4 1 .4 1.5-1.4.1-1.1-.6-.4-1.5z" fill="#e8dbb2"/><path d="m390.3 46.1c0-.3.1-.7.2-1 .9 0 .6.7.7 1.3-.3.2-.6.1-.9-.3z" fill="#e8dbb2"/><path d="m196.7 17.6c0 .2-.4.3-.6.3s-.3-.4-.3-.6c.3-.2.6-.1.9.3z" fill="#f8efc3"/><path d="m32.4 31.1c.1.3 0 .6-.4.9 0-.2.1-.5.4-.9z" fill="#e8dbb2"/><path d="m161.7 9.5c-.2-.6-.1-1.1.6-.3.1.2-.4.3-.6.3z" fill="#dfd2b3"/><path d="m324.4 14.6c-.5 0-.8-.2-.4-.5.1 0 .4.2.4.5z" fill="#d9cba6"/><path d="m454.5 43.5c1.2-.7 1.4-1.9 2.5-2 1.6.1.4 1.5.9 1.8.5 1.1 1.6.4 2 1.1.1.6.1 1.2.2 1.7-.2.4-.7.4-1.1.6-1.6.5-2.1-1.4-3.4-1.5-.9-.2-.9 1.1-2.3 1l-2.7-2.2c-.9-.1-1.7.4-2.3-.3 1.9-2.9 3.9-1.1 6.2-.2z" fill="#f8efc3"/><path d="m556.8 30.6c.9.2.8.8.5.8-1.4 0-2.7.7-4.2-.1-1.1-.6-2.7-.1-4.5-.2l1.8-1.7c2.2.5 4.4-1.2 6.8-1.5 1.2 1.8-.4 1.7-1 2.1v.3c-.1.2 0 .2.6.3z" fill="#fbf7d2"/><path d="m399.9 43c-.4-.3-.5-.5-.6-.5-.3.2-.6.5-1 .8l-1.6-1.2 1.9-1.5c.2-.1.6.2 1.1.7 1-.4 1.7-1.3 2.9-.8.4.2.4.4 0 .6-.7.7-1 2.2-2.7 1.9z" fill="#fbf7d2"/><path d="m537.4 31.5c-.7-.6-1.5-1.1-2.4-1.3l7-.6c-1.5 1.3-2.4 3-4.6 1.9z" fill="#f8efc3"/><path d="m415.9 46.4c.8-.3 1.7-.4 2.5-.5.5 2.6-2 2.5-2.8 3.7-.5-.7-1.7-.8-1.3-2.1.6-.2 1.2-.6 1.6-1.1z" fill="#fbf7d2"/><path d="m415.9 46c-1.9.7-3.5-.4-5.3-.5-.3-.5-.1-1.2.4-1.5 1.5.5 3.2.7 4.8.6z" fill="#fbf7d2"/><path d="m443.1 41.7c.6.2 1.1-.1 1.6.6-1.4.9-2.9.4-4.3.5.9-.4 1.4-1.5 2.7-1.1z" fill="#fff"/><path d="m460.7 41c1.6-1.3 2.1 0 2.6 1.2-.4.8-.8.6-1.3.7-.4-.7-.8-1.3-1.3-1.9z" fill="#fbf7d2"/><path d="m517.3 30.9c1.2-.4 1.8-.1 1.5 1.2-1.1.5-2.4.5-3.5.1.6-.4 1.3-.8 2-1.3z" fill="#fbf7d2"/><path d="m562 29.2c-1.6-1.8-.3-2.3 1.5-3.1-.3 1.1-.8 2.2-1.5 3.1z" fill="#fbf7d2"/><g fill="#fff"><path d="m440.5 46.4c-1-.2-.6-1.5-1.6-1.8.4-1.2 1.5-.2 2-.9.8 1.1-1.1 1.6-.4 2.7z"/><path d="m393.6 41.2c-.1-.7-1-.7-1.2-1.4 1-.7 1.7-.7 1.8 1.1-0 .2-.4.3-.6.3z"/><path d="m497.4 40.7c-.4-.4-.6-.7-.6-.7.3-.4.8-.6 1.3-.3.4.3.6.8.3 1.3 0 .1-.1.2-.2.2s-.4-.2-.8-.5z"/><path d="m562 30.1c.8 0 1.3-.3 1.8.3-.7.6-1.6.7-2.4.3-.5-.2-.5-.7 0-.3s0-.8.6-.3z"/><path d="m494.8 36.1c-.2-.7-.3-1.5-.2-2.3.6 1.2 1 1.8 1.2 2.3-.4.1-.7.1-1 0z"/><path d="m440 49.3c.1-.5.5-.8.5-.8.4.2.6.8.3 1.2 0 .1-.1.2-.2.2 0 .1-.3-.1-.6-.6z"/></g><path d="m460.1 39.3c-.5 0-.8-.2-.4-.5.2-.1.4.1.4.5z" fill="#fbf7d2"/><path d="m322.6 22.1-3.1.3c-.8-.4-.4-1.8-1.5-2 .8-1 1.4-2.1 2.5-2.7 1.4.9.6 2.3 1.1 3.2.1 1 2.2-.6 1 1.2z" fill="#fff"/><path d="m341.8 18.6c-1.1 0-1.9.5-2.5 0-.1-1.2 1.3-.3 1.5-1.2l-.8-.8c.5-.9 1-.8 4.4.5.1.6.1 1.2.1 1.8 0 .1-.2.2-.3.3-1 0-.3-1.3-1.1-1.5-.4.3-.9.6-1.3.9z" fill="#fbf7d2"/><path d="m349.5 18.5c.5-.9.8-1.5.8-1.5 1.8-.5 2.1.4 2.8.7l-.9 2.5c-2.1 0-2.1 0-2.7-1.7z" fill="#fbf7d2"/><path d="m359.8 22.2c.9 1.3-.6 1.6-.9 2.6-1.5.5-3 .7-4.2-.8.8-1 2.5.1 2.9-1.6l1 .8c.3-.4.7-.8 1.2-1z" fill="#fff"/><path d="m282.9 20.7c1.3-.3 2.7-.5 4-.6-1.7.8-2.9 2.5-5.1 2 .4-.5.7-.9 1.1-1.4z" fill="#fbf7d2"/><path d="m352.3 24.7c0-1.6-1.4-2-2.2-2.9.5-.8 1.4-.4 2-.6 1 .4.8 1.7 1.6 2.2-.5.4-.9.9-1.4 1.3z" fill="#fbf7d2"/><path d="m376.4 30.2c-1.1.7-2 2.2-3.4 1 .3-.4.6-.7.8-1.2.8-.1 1.8-.8 2.6.2z" fill="#fbf7d2"/><path d="m329 22.2-1.2-1c.6-.8 1.5-.5 2.4-.6.6 1 .5 1.7-1.2 1.6z" fill="#fff"/><path d="m349.2 15.9c-.8-.4-1.7-.7-2.6-.8.7-.7 1.7-.9 2.6-.5.1.4.1.9 0 1.3z" fill="#fff"/><path d="m268 26.9c-.9.2-1.6.7-2.5 0l1.6-1.2c.3.3.7.7.9 1.2z" fill="#fff"/><path d="m338.3 22.2c-.7.2-1.5.3-2.3.2l2.3-1.2c.1.3.1.7 0 1z" fill="#fff"/><path d="m269.2 27.9c.1-.5.5-.8.5-.8.4.2.6.8.3 1.2 0 .1-.1.2-.2.2 0 .1-.3-.1-.6-.6z" fill="#fff"/><path d="m366.9 32.2c-.5-.2-.8-.5-.8-.5.2-.4.8-.6 1.2-.3.1 0 .2.1.2.2.1 0-.1.3-.6.6z" fill="#cab78a"/><path d="m370.2 27.2c.2-.8.8-.9 1.4-.5-.1.8-.7.7-1.4.5z" fill="#cab78a"/><path d="m295.9 17.7c.5 0 .8.2.3.5 0 .1-.3-.2-.3-.5z" fill="#fff"/><path d="m369.4 30.8c-.4.3-.6.1-.8-.2.2-.5.5-.2.8.2z" fill="#cab78a"/><path d="m150 7.7c-.3-1.2-.2-2.2-1.4-2.8l2.8-1.7 1.6 1.2c-1 1.1-.4 3.4-3 3.3z" fill="#fff"/><path d="m136.1 11.9-1.4.1c-1-.8 0-2.5-1.5-3.3 1.9.6 3.9 0 5.3 1.6-.6.7-1.7.6-2.4 1.6z" fill="#fff"/><path d="m27.3 37.8c-.3-1-1-.8-1.8-.7-.2 0-.3-.4-.3-.6.3-.6.8-.7 1.5-1.1.8-.2 1.6-.3 2.4-.4.5.6 1.6.8 1.5 1.9-.1.2-.3.6-.4.7-1 0-1.8.1-2.9.2z" fill="#fff"/><path d="m160 5.2c.2.7.4 1.4.4 2.2-1.4 1.5-2-1-3.3-.2-.2-.5-.4-1.1-.4-1.7z" fill="#fbf7d2"/><path d="m103.1 18.4c.7.3 1.4.7 2 1.3-1.8.6-3.3 1.1-4.5-.7.6-.6 1.4-.3 2.5-.6z" fill="#fff"/><path d="m60.5 28.8c-.2 1-1.5.5-1.8 1.6-.8-.5-1.8-.8-1.5-2.2 1.1-.7 2.1-.7 3.3.6z" fill="#fff"/><path d="m35.7 36.1c-.4 1.4-1.9.6-2 2-.8-.8-.5-1.6-.7-2.3.6-.7 1.7-.8 2.4-.2.1.2.2.4.3.5z" fill="#fff"/><path d="m112.8 16c1.2-.6 1.7.3 2.4.8-.6.7-.8 1.8-2.2 1.5-.6-.6-.2-1.4-.2-2.3z" fill="#fff"/><path d="m64.9 26.4c1 .3 1.1.8.9 1.4-.7.5-1.6.6-2.3.2-.6-1.1-.2-1.6 1.4-1.6z" fill="#fff"/><path d="m22.7 38.4c.9-.3 1.2.6 1.9 1.2l.1.9c-.5.3-1.1.4-1.7.4z" fill="#fff"/><path d="m56 35.8c-1-.2-2-.5-2.9-.9 1.1-.6 2.5-.8 3.8-.4-.4.4-.7.8-.9 1.3z" fill="#fbf7d2"/><path d="m19.7 42c-.2-.4-.4-.9-.4-1.4 1-.7 1.8-.8 1.9 1-.4.3-1 .4-1.5.4z" fill="#fbf7d2"/><path d="m35.3 33.3c-.9.2-1.7.7-2.5 0 .9-.8 1.8-.9 2.5 0z" fill="#fff"/><path d="m125.1 6c.9-.2 1.7-.7 2.5 0-.9.8-1.8 1-2.5 0z" fill="#fff"/><path d="m161.5 2.5c.3 1-.4.9-1.2 1-.3 0-.7-.1-1-.2.3-1.3 1.3-.5 2.2-.8z" fill="#fff"/><path d="m47.9 31.5c-.2-.6-.6-1.3.1-1.8.7.6.7 1.2-.1 1.8z" fill="#fff"/><path d="m135.6 5.1c.9.2.7.8.6 1.5-.8-.3-.7-.8-.6-1.5z" fill="#fff"/><path d="m26.6 35.2c.3 1-.4.9-1.2 1-.4-1 .3-.9 1.2-1z" fill="#e8dbb2"/><path d="m47.5 31.5c.2 1.4-.8.7-1.5 1.2.2-1.3.8-1.1 1.5-1.2z" fill="#fff"/><path d="m21.3 42.1c.3-.1.6 0 .9.4-.3.1-.6-.1-.9-.4z" fill="#fbf7d2"/><path d="m217.9 29.1c.1.5.5.8 1 .8 1.4-.1 2.9-.2 3.9-.3 2.5.7 1 3.7 3.3 4.1l1.7-.2c.6-.3.3-1 .5-1.5.6-.6 1.4-.3 2.4-.6-.3 1-.5 1.8-.8 2.7l-2 .4c-.7.4.3 1.5-1.2 1.8-1.6-2.1-4.3-2.8-7.1-3.8-1.6-1-2.2-2.2-1.7-3.4z" fill="#fff"/><path d="m207.6 23 .9-.1c.2.1.2.3.3.4.2.2.5.4.7.6.3.8-.9.9-.8 1.5l-4.1.4c-.2-2.2 1-2.8 3-2.8z" fill="#fbf7d2"/><path d="m202.4 28.8c-.2-.5-.4-1-.4-1.5 1.7-.6 3.5-.4 5.1.4.2.1.3.7.4 1.3-.5.8-1.3.8-2.3.6-.7-1.8-1.9-.7-2.8-.8z" fill="#fbf7d2"/><path d="m212.6 27.1c.8-.1.8-1.4 1.6-1.3.9 0 1.2.8 1.9 1.1-.3.4-.6.8-.8 1.2-1.2.8-1.9-.1-2.7-1z" fill="#fff"/><path d="m181.8 11.4 1.4 1.2c-1.8.4-3.6-.2-4.8-1.6 1.3-1.7 2 1.1 3.4.4z" fill="#fbf7d2"/><path d="m168.8 2.7c1 .3 1.1.8.9 1.4-.7.5-1.6.6-2.3.2-.6-1.1-.2-1.6 1.4-1.6z" fill="#fbf7d2"/><path d="m210.4 29.8c-.1-.9-.6-1.8-1.3-2.3.9-.5 2-.2 2.5.6 0 0 0 .1.1.1.6 1 .1 1.6-1.3 1.6z" fill="#fff"/><path d="m184 14.5c.6-1.3 1.4-.9 2.2-1-.7 1.6-.7 1.6-2.2 1z" fill="#fff"/><path d="m200.3 21 1.8-.2c.1 1-.6 1.8-1.6 1.9-.1 0-.2 0-.3 0-.6-.5-.6-1.1.1-1.7z" fill="#fff"/><path d="m189.5 23.7c-.2-.5-.4-1.1-.4-1.6.8 0 1.5.6 1.8 1.4-.4.1-.8.1-1.4.2z" fill="#fff"/><path d="m204.9 29.6c.8-.3 1.6-.4 2.4-.4-.3 1.6-1.4 1-2.4.4z" fill="#cdbd9a"/><path d="m376.7 33 .1 1.3c-2.3.6-2.3.6-3.7-1.5 1.1-.8 2.6-.7 3.6.2z" fill="#fbf7d2"/><path d="m11.3 40.7 148.9-35.5 73.1 32.1 112.2-22.8 70.2 35.2 167.6-29.8" style="fill:none;stroke:#fff;stroke-width:23;stroke-linecap:round;stroke-linejoin:round;stroke-miterlimit:10"/></svg>